<?xml version="1.0" encoding="utf-8"?>
<!-- Generator: Adobe Illustrator 24.0.1, SVG Export Plug-In . SVG Version: 6.00 Build 0)  -->
<svg version="1.1" id="Capa_1" xmlns="http://www.w3.org/2000/svg" xmlns:xlink="http://www.w3.org/1999/xlink" x="0px" y="0px"
	 viewBox="0 0 477.2 477.2" style="enable-background:new 0 0 477.2 477.2;" xml:space="preserve">
<g>
	<path d="M421.1,340l-1.8-5.4c-4.2-12.6-18.2-25.8-31-29.3l-47.3-12.9c-12.8-3.5-31.1,1.2-40.5,10.6l-17.1,17.1
		c-62.2-16.8-111.1-65.6-127.8-127.9l17.1-17.1c9.4-9.4,14.1-27.7,10.6-40.5l-12.9-47.3c-3.5-12.8-16.7-26.7-29.3-30.9l-5.4-1.8
		c-12.6-4.2-30.6,0-40,9.4L70.1,89.6c-4.6,4.6-7.5,17.6-7.5,17.6c-0.9,81.3,31,159.7,88.5,217.2c57.4,57.4,135.5,89.2,216.6,88.6
		c0.4,0,13.8-2.9,18.4-7.4l25.6-25.6C421.1,370.6,425.3,352.6,421.1,340z"/>
</g>
</svg>
